<?xml version="1.0" encoding="iso-8859-1"?>
<!-- Generator: Adobe Illustrator 16.0.0, SVG Export Plug-In . SVG Version: 6.00 Build 0)  -->
<!DOCTYPE svg PUBLIC "-//W3C//DTD SVG 1.1//EN" "http://www.w3.org/Graphics/SVG/1.1/DTD/svg11.dtd">
<svg xmlns="http://www.w3.org/2000/svg" xmlns:xlink="http://www.w3.org/1999/xlink" version="1.1" id="Capa_1" x="0px" y="0px" width="512px" height="512px" viewBox="0 0 46.244 46.244" style="enable-background:new 0 0 46.244 46.244;" xml:space="preserve">
<g>
	<g>
		<path d="M9.381,11.039l0.055,3.033c0.01,0.507-0.025,1.007,0.032,1.522c0.024,0.127,0.033,0.26,0.136,0.383    c0.174,0.128,0.313-0.058,0.379-0.137c0.162-0.207,0.275-0.434,0.391-0.661c0.23-0.433,0.481-0.852,0.753-1.255v1.069    c0,1.266,0.285,1.299,0.842,0.164c1.737-3.537,4.556-5.415,7.249-6.411c0.194-0.046,0.385-0.102,0.58-0.142    c0.967-0.213,1.924-0.336,2.936-0.402c0.285-0.038,0.56-0.046,0.949-0.257c0.072-0.045,0.159-0.12,0.241-0.225    c0.084-0.007,0.174-0.017,0.254-0.022c1.263-0.088,1.393-0.51,0.287-1.127l-7.913-4.414c0,0,0,0-3.022-1.462    c-0.737-0.355-1.252-0.427-1.618-0.34c-0.166-0.07-0.329-0.141-0.505-0.207C10.914,0,10.226-0.161,9.654,0.336    C9.171,0.79,9.115,1.42,9.079,1.93C9.03,2.992,9.24,3.993,9.237,4.976L9.381,11.039z M9.535,14.072l0.055-3.033l0.145-6.065    c0.024-1.04-0.156-2.048-0.084-3.01c0.037-0.47,0.128-0.949,0.423-1.185c0.221-0.209,0.701-0.171,1.128-0.014    c0.031,0.013,0.065,0.029,0.096,0.043c-0.559,0.904-0.172,2.826-0.172,3.952v8.855c-0.31,0.492-0.597,0.996-0.843,1.52    c-0.112,0.223-0.228,0.451-0.378,0.643c-0.07,0.094-0.182,0.19-0.232,0.127c-0.062-0.072-0.088-0.206-0.105-0.324    C9.512,15.089,9.545,14.575,9.535,14.072z" fill="#808080"/>
		<path d="M31.679,14.53c0.811,1.792,1.363,3.703,1.537,5.645c0.18,1.941-0.094,3.923-0.847,5.73    c-0.185,0.454-0.405,0.892-0.642,1.321l-0.381,0.646c-0.129,0.265-0.285,0.411-0.338,0.892c0,0.072,0.008,0.166,0.09,0.293    c0.06,0.102,0.233,0.192,0.301,0.191c0.193,0.029,0.268-0.011,0.357-0.03c0.168-0.051,0.287-0.115,0.412-0.179    c0.244-0.132,0.456-0.273,0.668-0.405l0.256-0.16c-0.231,0.54,0.055,0.57,0.896,0.056l8.729-5.333    c1.08-0.659,3.282-1.423,3.403-2.57c0.048-0.444-0.233-0.983-1.187-1.598c-2.819-1.82-2.819-1.82-2.819-1.82l-7.888-4.449    c-0.647-0.365-1.006-0.392-1.082-0.133l-0.398-0.25c-0.211-0.12-0.477-0.28-0.832-0.347c-0.092-0.016-0.208-0.029-0.357,0.005    c-0.145,0.023-0.352,0.157-0.433,0.326c-0.153,0.337-0.077,0.515-0.058,0.685C31.233,13.68,31.505,14.074,31.679,14.53z     M32.358,13.104l1.086,0.545c1.458,2.838,3.342,8.267,0.314,13.638l-1.277,0.759c-0.195,0.113-0.381,0.226-0.562,0.323    c0.021-0.038,0.043-0.076,0.064-0.108l0.404-0.652c0.263-0.449,0.511-0.908,0.717-1.387c0.865-1.901,1.228-4.031,1.1-6.119    c-0.124-2.094-0.727-4.127-1.617-5.996c-0.199-0.424-0.457-0.833-0.584-1.162C32.108,12.983,32.226,13.033,32.358,13.104z" fill="#808080"/>
		<path d="M22.734,12.556c-0.345-0.047-0.691-0.08-1.039-0.08c-2.022-0.048-4.072,0.715-5.618,2.11    c-0.769,0.701-1.416,1.558-1.859,2.522c-0.433,0.968-0.672,2.028-0.701,3.098c-0.032,2.144,0.854,4.292,2.399,5.779    c1.53,1.5,3.663,2.343,5.78,2.301c0.878-0.007,1.748-0.173,2.572-0.463c3.799-0.461,6.746-3.691,6.746-7.616    c0-4.243-3.439-7.681-7.679-7.681C23.132,12.525,22.933,12.54,22.734,12.556z M16.615,25.286c-1.315-1.349-2.086-3.197-2.1-5.081    c-0.055-1.882,0.643-3.79,1.938-5.241c0.652-0.719,1.45-1.325,2.351-1.739c0.904-0.403,1.89-0.624,2.892-0.65    c0.198,0,0.396,0.014,0.594,0.029c-3.745,0.511-6.635,3.714-6.635,7.602c0,3.279,2.06,6.071,4.953,7.172    C19.093,27.122,17.67,26.387,16.615,25.286z" fill="#808080"/>
		<path d="M0.23,42.355c0.053,0.136,0.115,0.252,0.18,0.357c0.126,0.201,0.254,0.354,0.381,0.494    c0.249,0.268,0.494,0.479,0.738,0.671C2.5,44.625,3.502,45.119,4.467,45.4C4.793,45.354,4,44.94,4.524,44.958    c2.087,1.555,5.834,1.519,6.02,0.846c-1.413-0.152-2.84-0.497-4.254-0.969c-1.138-0.391-2.278-0.845-3.369-1.42    c0.084,0.036,0.166,0.077,0.251,0.112c0.852,0.352,1.731,0.617,2.622,0.838c1.781,0.438,3.611,0.691,5.459,0.847    c3.697,0.302,7.468,0.19,11.212-0.028c3.747-0.225,7.469-0.559,11.122-0.82l5.445-0.364c0.904-0.062,1.807-0.121,2.729-0.222    c0.463-0.053,0.93-0.111,1.424-0.22c0.248-0.056,0.505-0.122,0.787-0.233c0.278-0.127,0.602-0.234,0.992-0.71    c0.104-0.346,0.067-0.67-0.027-0.821c-0.092-0.156-0.2-0.161-0.307-0.102c-0.195,0.152-0.529,0.436-0.89,0.447    c-0.699,0.068-1.674-0.01-2.95-0.008c-2.529-0.017-6.08,0.095-9.312,0.803c-0.418-0.263,0.275-0.571-1.086-0.797    c-5.305-0.117-11.133,1.229-16.777,1.328c-1.146-0.965-5.273-1.442-7.021-0.972c-0.183,0.478,2.69,0.508,2.579,0.843    c-1.055,0.412-2.822,0.068-4.45-0.367l-2.155-0.62c-0.015-0.006-0.032-0.01-0.047-0.017c-0.422-0.176-0.924-0.449-1.041-0.662    c-0.006-0.002-0.004-0.009-0.005-0.016c0.023,0.001,0.028-0.026,0.081-0.066c0.105-0.099,0.301-0.208,0.504-0.297    c0.416-0.183,0.893-0.319,1.373-0.438c1.879-0.443,3.871-0.672,5.867-0.872c0.021,0.031,0.03,0.062,0.054,0.093    c0.232,0.294,0.635,0.503,0.99,0.531c0.711,0.061,1.237-0.188,1.732-0.411l0.202-0.1c0.326-0.015,0.735-0.126,1.253-0.375    c0.056-0.027,0.104-0.05,0.158-0.076c0.697-0.043,1.393-0.088,2.093-0.123c4.209-0.202,8.456-0.271,12.662-0.165    c3.651,0.114,7.306,0.299,10.802,0.892c0.521,0.09,1.044,0.178,1.557,0.293c0.758,0.173,2.16,0.356,2.84,0.712    c0.358,0.158,0.408,0.485,0.459,0.376c0.035-0.012,0.029-0.267-0.147-0.46c-0.127-0.154-0.346-0.3-0.61-0.438    c-0.061-0.034-0.121-0.065-0.192-0.1c-0.03-0.015-0.05-0.03-0.083-0.044c-0.041-0.018-0.082-0.026-0.123-0.042    c-0.086-0.036-0.156-0.072-0.258-0.107c-0.176-0.062-0.355-0.114-0.535-0.168c-0.057-0.017-0.111-0.036-0.168-0.052    c-0.322-0.092-0.646-0.175-0.971-0.248c-0.142-0.034-0.31-0.064-0.484-0.09c-1.096-0.223-2.207-0.371-3.322-0.516    c-1.992-0.231-4.007-0.372-6.031-0.466c-4.05-0.183-8.138-0.178-12.197-0.073c-1.303,0.037-2.601,0.088-3.896,0.146    c1.465-0.708,1.472-0.711,1.472-0.711l7.912-4.414c1.106-0.616,0.976-1.038-0.287-1.126c-0.172-0.012-0.356-0.029-0.543-0.047    c-0.115-0.081-0.222-0.11-0.32-0.147c-0.149-0.046-0.286-0.066-0.423-0.085c-0.276-0.034-0.524-0.04-0.771-0.062    c-0.317-0.026-0.635-0.073-0.952-0.115c-3.187-0.753-7.032-2.592-9.198-7c-0.558-1.136-0.842-1.102-0.842,0.163v1.085    c-0.103-0.156-0.222-0.302-0.317-0.463c-0.266-0.431-0.451-0.896-0.728-1.333c-0.075-0.105-0.143-0.216-0.272-0.294    c-0.058-0.05-0.193-0.027-0.227,0.047c-0.047,0.062-0.065,0.128-0.082,0.192c-0.062,0.257-0.061,0.512-0.065,0.766    c-0.04,2.021-0.102,4.043-0.218,6.064l-0.146,3.032c-0.02,0.509-0.017,1.01-0.055,1.497l-0.148,1.506    c-0.027,0.521-0.044,1.061,0.077,1.647c0.015,0.063,0.042,0.132,0.062,0.198c-0.69,0.061-1.381,0.12-2.066,0.194    c-0.984,0.113-1.963,0.242-2.932,0.423c-0.135,0.029-0.27,0.058-0.405,0.084c-0.11-0.136,0.48-0.352,0.315-0.481    c-0.693-0.1-1.361,0.041-1.807,0.267c-0.45,0.228-0.652,0.525-0.478,0.628c-0.231,0.032-0.479,0.068-0.767,0.203    c-0.143,0.067-0.303,0.165-0.46,0.349c-0.077,0.091-0.153,0.209-0.206,0.354c-0.029,0.069-0.045,0.152-0.061,0.232l-0.005,0.029    l-0.002,0.004l0.004,0.08l-0.001,0.003l-0.001,0.006l-0.007,0.021l-0.013,0.044c0,0.087,0.02,0.227,0.045,0.325    C0.179,42.206,0.202,42.284,0.23,42.355z M9.867,37.569c0.161-2.021-0.034-4.079-0.114-6.085    c-0.115-2.021-0.178-4.043-0.218-6.064c0.004-0.25,0.005-0.505,0.062-0.741c0.029-0.113,0.082-0.24,0.167-0.174    c0.089,0.052,0.165,0.161,0.233,0.26c0.265,0.417,0.458,0.897,0.725,1.328c0.122,0.219,0.27,0.422,0.404,0.634v8.927    c0,0.978-0.289,2.552-0.002,3.543c-0.354,0.025-0.711,0.045-1.064,0.073C9.872,38.885,9.82,38.192,9.867,37.569z M1.455,41.672    c-0.033,0.044-0.034-0.023-0.047-0.045c0.069,0.054,0.028,0.017,0.055,0.029C1.461,41.659,1.462,41.653,1.455,41.672z" fill="#808080"/>
	</g>
</g>
<g>
</g>
<g>
</g>
<g>
</g>
<g>
</g>
<g>
</g>
<g>
</g>
<g>
</g>
<g>
</g>
<g>
</g>
<g>
</g>
<g>
</g>
<g>
</g>
<g>
</g>
<g>
</g>
<g>
</g>
</svg>
