<?xml version="1.0" encoding="iso-8859-1"?>
<!-- Generator: Adobe Illustrator 19.0.0, SVG Export Plug-In . SVG Version: 6.00 Build 0)  -->
<svg version="1.1" id="Layer_1" xmlns="http://www.w3.org/2000/svg" xmlns:xlink="http://www.w3.org/1999/xlink" x="0px" y="0px"
	 viewBox="0 0 512 512" style="enable-background:new 0 0 512 512;" xml:space="preserve">
<g>
	<path style="fill:#7F838C;" d="M143,175c-43.561,0-79-35.439-79-79c0-8.284,6.716-15,15-15h64c8.284,0,15,6.716,15,15v64
		C158,168.284,151.284,175,143,175z"/>
	<path style="fill:#7F838C;" d="M143,303c-43.561,0-79-35.439-79-79c0-8.284,6.716-15,15-15h64c8.284,0,15,6.716,15,15v64
		C158,296.284,151.284,303,143,303z"/>
	<path style="fill:#7F838C;" d="M143,431c-43.561,0-79-35.439-79-79c0-8.284,6.716-15,15-15h64c8.284,0,15,6.716,15,15v64
		C158,424.284,151.284,431,143,431z"/>
</g>
<g>
	<path style="fill:#757982;" d="M369,175c-8.284,0-15-6.716-15-15V96c0-8.284,6.716-15,15-15h64c8.284,0,15,6.716,15,15
		C448,139.561,412.561,175,369,175z"/>
	<path style="fill:#757982;" d="M369,303c-8.284,0-15-6.716-15-15v-64c0-8.284,6.716-15,15-15h64c8.284,0,15,6.716,15,15
		C448,267.561,412.561,303,369,303z"/>
	<path style="fill:#757982;" d="M369,431c-8.284,0-15-6.716-15-15v-64c0-8.284,6.716-15,15-15h64c8.284,0,15,6.716,15,15
		C448,395.561,412.561,431,369,431z"/>
</g>
<path style="fill:#5C5F66;" d="M336,512H176c-26.468,0-48-21.533-48-48V80c0-44.112,35.888-80,80-80h96c44.112,0,80,35.888,80,80
	v384C384,490.467,362.468,512,336,512z"/>
<path style="fill:#53565C;" d="M304,0h-48v512h80c26.468,0,48-21.533,48-48V80C384,35.888,348.112,0,304,0z"/>
<path style="fill:#FFDE33;" d="M256,303c-25.916,0-47-21.084-47-47s21.084-47,47-47s47,21.084,47,47S281.916,303,256,303z"/>
<path style="fill:#7F838C;" d="M304,239h-96c-8.284,0-15-6.716-15-15s6.716-15,15-15h96c8.284,0,15,6.716,15,15S312.284,239,304,239
	z"/>
<path style="fill:#FFBC33;" d="M303,256c0-25.916-21.084-47-47-47v94C281.916,303,303,281.916,303,256z"/>
<path style="fill:#757982;" d="M304,209h-48v30h48c8.284,0,15-6.716,15-15S312.284,209,304,209z"/>
<path style="fill:#87D92B;" d="M256,431c-25.916,0-47-21.084-47-47s21.084-47,47-47s47,21.084,47,47S281.916,431,256,431z"/>
<path style="fill:#7F838C;" d="M304,367h-96c-8.284,0-15-6.716-15-15s6.716-15,15-15h96c8.284,0,15,6.716,15,15S312.284,367,304,367
	z"/>
<path style="fill:#7FCC29;" d="M303,384c0-25.916-21.084-47-47-47v94C281.916,431,303,409.916,303,384z"/>
<path style="fill:#757982;" d="M304,337h-48v30h48c8.284,0,15-6.716,15-15S312.284,337,304,337z"/>
<path style="fill:#F23051;" d="M256,175c-25.916,0-47-21.084-47-47s21.084-47,47-47s47,21.084,47,47S281.916,175,256,175z"/>
<path style="fill:#7F838C;" d="M304,111h-96c-8.284,0-15-6.716-15-15s6.716-15,15-15h96c8.284,0,15,6.716,15,15S312.284,111,304,111
	z"/>
<path style="fill:#D92C48;" d="M303,128c0-25.916-21.084-47-47-47v94C281.916,175,303,153.916,303,128z"/>
<path style="fill:#757982;" d="M304,81h-48v30h48c8.284,0,15-6.716,15-15S312.284,81,304,81z"/>
<g>
</g>
<g>
</g>
<g>
</g>
<g>
</g>
<g>
</g>
<g>
</g>
<g>
</g>
<g>
</g>
<g>
</g>
<g>
</g>
<g>
</g>
<g>
</g>
<g>
</g>
<g>
</g>
<g>
</g>
</svg>
