<?xml version="1.0" standalone="no"?>
<!DOCTYPE svg PUBLIC "-//W3C//DTD SVG 20010904//EN"
 "http://www.w3.org/TR/2001/REC-SVG-20010904/DTD/svg10.dtd">
<svg version="1.0" xmlns="http://www.w3.org/2000/svg"
 width="2000.000000pt" height="2000.000000pt" viewBox="0 0 2000.000000 2000.000000"
 preserveAspectRatio="xMidYMid meet">

<g transform="translate(0.000000,2000.000000) scale(0.100000,-0.100000)"
fill="#000000" stroke="none">
<path d="M9015 19170 c-528 -164 -2200 -683 -3715 -1153 -1515 -471 -2966
-921 -3224 -1001 -258 -80 -471 -147 -472 -149 -2 -2 -15 -95 -29 -208 -101
-825 -142 -1639 -132 -2599 8 -690 27 -1105 83 -1740 289 -3321 1326 -6144
3011 -8199 383 -468 875 -972 1323 -1356 1111 -953 2424 -1682 3914 -2175
l219 -73 121 38 c321 99 868 307 1251 476 263 116 793 383 1030 519 890 509
1626 1070 2326 1769 911 911 1620 1926 2235 3196 837 1729 1361 3835 1529
6140 65 900 73 2021 20 2905 -25 415 -76 957 -116 1230 l-11 75 -1341 417
c-2752 856 -4914 1529 -5958 1853 -592 184 -1082 335 -1090 334 -8 0 -446
-134 -974 -299z m-2193 -6189 c286 -44 533 -120 783 -240 195 -94 327 -179
489 -315 l29 -24 -36 -69 c-321 -609 -363 -674 -464 -720 -62 -29 -163 -34
-229 -13 -21 7 -127 59 -234 116 -213 113 -355 173 -488 207 -77 19 -112 22
-302 21 -187 0 -225 -3 -291 -21 -228 -64 -372 -202 -420 -403 -18 -79 -17
-214 4 -281 55 -183 280 -333 707 -471 598 -193 741 -245 965 -353 432 -208
712 -531 815 -938 116 -462 26 -1037 -230 -1452 -241 -392 -641 -676 -1124
-800 -244 -62 -318 -70 -651 -70 -267 1 -315 3 -434 24 -508 87 -974 278
-1333 543 -103 76 -210 178 -204 194 17 44 397 628 433 665 63 65 140 101 230
107 108 7 178 -19 373 -139 297 -183 485 -269 680 -310 139 -29 413 -32 534
-5 348 77 506 271 508 621 0 98 -4 132 -21 183 -79 231 -306 374 -821 518
-536 150 -851 274 -1074 424 -299 201 -507 511 -585 875 -33 154 -44 285 -38
484 8 273 52 453 167 686 167 334 436 595 795 770 237 116 438 172 745 209 19
2 159 3 310 1 219 -2 303 -7 412 -24z m3433 -55 c85 -33 139 -99 232 -281 44
-88 397 -783 784 -1545 756 -1490 771 -1521 864 -1742 l62 -147 53 132 c55
137 166 385 180 402 4 6 353 690 775 1520 422 831 780 1528 796 1551 33 49 84
89 141 112 39 15 107 17 661 20 l617 3 0 -2871 0 -2870 -590 0 -590 0 1 1773
c0 974 4 1824 9 1887 4 63 7 116 6 117 0 0 -338 -654 -751 -1455 -412 -801
-766 -1481 -786 -1512 -66 -103 -184 -183 -307 -209 -81 -17 -376 -14 -446 4
-139 36 -251 123 -318 245 -20 36 -305 585 -633 1220 -826 1597 -879 1699
-883 1696 -1 -2 2 -61 8 -131 6 -82 10 -759 10 -1881 l0 -1754 -590 0 -590 0
0 2870 0 2871 618 -3 c578 -3 620 -5 667 -22z m-3407 -6954 l2 -313 -37 3
c-31 2 -39 7 -41 26 -4 27 -3 27 -48 -3 -130 -88 -264 5 -264 185 0 99 41 179
112 216 36 19 129 18 154 -1 10 -8 22 -15 27 -15 4 0 7 50 7 111 l0 110 43 -3
42 -3 3 -313z m2712 197 l0 -120 32 22 c46 33 141 38 185 10 89 -56 111 -246
40 -352 -50 -75 -166 -100 -236 -50 -31 22 -31 22 -31 2 0 -18 -6 -21 -40 -21
l-40 0 0 315 0 315 45 0 45 0 0 -121z m475 -194 l0 -310 -42 -3 -43 -3 0 316
0 316 43 -3 42 -3 0 -310z m4295 0 l0 -315 -45 0 -45 0 0 308 c0 170 3 312 7
315 3 4 24 7 45 7 l38 0 0 -315z m-7276 289 c43 -43 -5 -120 -60 -96 -13 7
-29 23 -36 36 -24 55 53 103 96 60z m3204 -17 c12 -24 11 -31 -2 -52 -21 -32
-52 -40 -81 -21 -29 19 -34 66 -9 91 26 26 76 16 92 -18z m1334 16 c24 -21 23
-58 -2 -83 -23 -23 -30 -24 -65 -8 -33 15 -42 51 -21 83 19 29 60 33 88 8z
m-6093 -200 l114 -203 27 53 c16 28 66 120 112 202 l83 150 48 3 47 3 0 -306
0 -306 -42 3 -43 3 0 223 c0 122 -1 222 -2 222 -1 0 -45 -78 -97 -174 -53 -95
-103 -179 -111 -186 -32 -26 -58 4 -158 184 -55 97 -100 176 -100 176 -1 0 -2
-100 -2 -222 l0 -223 -42 -3 -43 -3 0 306 0 306 48 -3 47 -3 114 -202z m3293
197 c81 -23 131 -91 131 -180 0 -128 -93 -200 -258 -200 l-55 0 0 -110 0 -110
-50 0 -50 0 0 305 0 305 123 0 c67 0 139 -5 159 -10z m4448 -30 l0 -40 -95 0
-95 0 0 -265 0 -265 -50 0 -50 0 0 265 0 265 -95 0 -95 0 0 40 0 40 240 0 240
0 0 -40z m-1940 -70 l0 -70 60 0 60 0 0 -35 0 -35 -60 0 -61 0 3 -142 3 -143
27 -3 c15 -2 36 1 46 7 17 9 23 6 37 -16 17 -26 17 -27 -4 -44 -31 -25 -86
-34 -131 -20 -59 18 -70 51 -70 219 l0 141 -32 3 c-28 2 -34 8 -36 31 -3 22 1
27 18 27 36 0 60 19 60 48 0 15 3 44 6 65 6 34 9 37 40 37 l34 0 0 -70z
m-4973 -86 c41 -31 71 -80 79 -130 11 -75 13 -74 -151 -74 -139 0 -145 -1
-145 -20 0 -35 27 -88 54 -105 36 -24 113 -22 163 3 40 21 41 21 58 2 25 -27
13 -48 -42 -73 -65 -29 -164 -30 -212 -2 -85 50 -126 154 -103 261 23 111 97
167 209 161 44 -2 71 -9 90 -23z m731 -196 l2 -218 -45 0 -45 0 0 221 0 220
43 -3 42 -3 3 -217z m194 57 c3 -155 4 -166 25 -187 28 -27 79 -28 125 -1 l33
19 5 165 5 164 40 0 40 0 3 -218 2 -218 -37 3 c-30 2 -38 8 -43 28 -4 18 -8
21 -14 11 -13 -20 -87 -51 -124 -51 -49 0 -98 27 -124 69 -21 33 -23 51 -27
194 -2 86 -1 164 3 172 3 10 19 15 45 15 l40 0 3 -165z m462 139 l9 -21 35 23
c24 16 49 24 79 24 38 0 51 -6 78 -33 l34 -34 31 31 c28 29 36 31 100 31 62 0
71 -3 99 -29 43 -42 51 -79 51 -253 l0 -153 -45 0 -45 0 0 160 c0 157 -1 161
-25 185 -15 16 -36 25 -55 25 -19 0 -40 -9 -55 -25 -24 -24 -25 -28 -25 -185
l0 -160 -45 0 -45 0 0 160 c0 157 -1 161 -25 185 -29 30 -59 31 -102 5 l-33
-20 0 -165 0 -165 -45 0 -45 0 0 213 c0 118 3 217 7 221 14 14 58 1 67 -20z
m1366 -129 c0 -94 4 -164 11 -179 22 -47 92 -52 155 -11 23 15 24 19 26 178
l3 162 40 0 40 0 3 -218 2 -218 -37 3 c-30 2 -38 8 -43 28 -4 18 -8 21 -14 11
-13 -20 -87 -51 -126 -51 -48 0 -101 30 -125 71 -17 29 -20 56 -24 192 -2 86
-1 164 3 172 3 10 19 15 46 15 l40 0 0 -155z m1168 -67 l2 -218 -45 0 -45 0 0
213 c0 118 3 217 7 221 4 4 23 6 43 4 l35 -3 3 -217z m396 199 c46 -26 51 -35
31 -62 -14 -17 -18 -18 -48 -6 -118 49 -197 -2 -197 -128 0 -130 81 -191 182
-137 45 24 47 24 63 6 33 -36 -6 -73 -98 -92 -43 -9 -64 -9 -99 1 -171 52
-189 344 -26 424 50 25 144 22 192 -6z m373 3 c58 -35 66 -66 71 -253 l4 -168
-38 3 c-31 2 -40 7 -42 25 l-3 22 -36 -24 c-102 -70 -233 -26 -233 77 0 24 7
54 16 66 23 34 86 61 170 75 l76 12 -5 40 c-10 75 -74 96 -153 50 l-43 -26
-21 21 c-24 24 -25 33 -6 49 63 52 183 68 243 31z m573 -200 l0 -220 -40 0
-40 0 0 220 0 220 40 0 40 0 0 -220z m396 201 c108 -49 148 -219 79 -336 -64
-109 -228 -125 -321 -31 -101 102 -75 304 47 364 56 28 138 29 195 3z m269 -8
l11 -21 39 24 c51 30 126 32 172 4 58 -35 66 -66 71 -252 l4 -168 -46 0 -46 0
0 150 c0 191 -12 220 -89 220 -16 0 -43 -10 -62 -23 l-34 -23 -3 -162 -2 -162
-45 0 -45 0 0 221 0 220 32 -3 c21 -2 36 -10 43 -25z m1321 8 c78 -36 120
-121 111 -227 -6 -80 -40 -141 -95 -172 -123 -69 -271 -14 -308 116 -34 115 6
232 95 279 55 29 138 31 197 4z m491 -13 c112 -74 120 -282 13 -371 -71 -60
-181 -61 -264 -4 -41 29 -76 110 -76 177 0 153 79 234 221 228 52 -3 75 -9
106 -30z m611 12 c44 -20 52 -39 27 -64 -13 -13 -19 -13 -50 0 -70 29 -145 10
-145 -37 0 -23 29 -42 100 -64 75 -25 120 -70 120 -121 0 -116 -149 -181 -269
-119 -42 21 -49 42 -23 67 l20 21 35 -22 c38 -23 103 -28 128 -8 9 7 19 22 23
34 10 32 -19 56 -97 82 -84 28 -117 64 -117 125 0 104 129 160 248 106z"/>
<path d="M6609 6015 c-68 -37 -80 -225 -16 -270 35 -24 100 -19 136 11 31 26
31 26 31 129 0 100 -1 104 -26 124 -31 24 -87 27 -125 6z"/>
<path d="M9597 6005 l-37 -26 0 -109 c0 -108 0 -110 27 -127 36 -24 106 -22
134 3 31 28 49 76 49 134 0 128 -81 187 -173 125z"/>
<path d="M8610 6075 l0 -115 60 0 c105 0 160 41 160 119 0 79 -44 111 -150
111 l-70 0 0 -115z"/>
<path d="M6157 6010 c-14 -11 -30 -33 -35 -50 l-11 -30 110 0 c60 0 109 2 109
5 0 20 -32 75 -48 84 -33 18 -97 13 -125 -9z"/>
<path d="M10910 5839 c-25 -5 -55 -20 -70 -34 -24 -24 -24 -27 -9 -53 13 -24
21 -27 67 -27 67 1 102 30 102 87 0 43 -4 44 -90 27z"/>
<path d="M11815 5997 c-41 -41 -54 -108 -36 -176 15 -55 26 -70 70 -88 38 -16
86 -9 115 16 67 58 57 229 -15 266 -49 26 -97 19 -134 -18z"/>
<path d="M13405 5997 c-42 -42 -54 -105 -34 -179 18 -65 51 -91 114 -91 74 0
115 55 115 155 0 128 -115 195 -195 115z"/>
<path d="M13884 6011 c-37 -22 -54 -65 -54 -133 0 -81 34 -138 91 -151 38 -9
97 11 116 39 22 35 32 106 22 162 -17 90 -100 129 -175 83z"/>
</g>
</svg>
