<?xml version="1.0" encoding="iso-8859-1"?>
<!-- Generator: Adobe Illustrator 18.0.0, SVG Export Plug-In . SVG Version: 6.00 Build 0)  -->
<!DOCTYPE svg PUBLIC "-//W3C//DTD SVG 1.1//EN" "http://www.w3.org/Graphics/SVG/1.1/DTD/svg11.dtd">
<svg xmlns="http://www.w3.org/2000/svg" xmlns:xlink="http://www.w3.org/1999/xlink" version="1.1" id="Capa_1" x="0px" y="0px" viewBox="0 0 216 216" style="enable-background:new 0 0 216 216;" xml:space="preserve" width="512px" height="512px">
<path d="M108,0C48.353,0,0,48.353,0,108s48.353,108,108,108s108-48.353,108-108S167.647,0,108,0z M128.667,140v5h-54v-5h17v-23.111  L59.606,77H42.667v-7h57v7H83.804l22.839,29.97L128.122,88h-12.456v-6h48.073l-4.622,6h-15.785l-32.667,26.85V140H128.667z   M161.727,146.245l-8.156-0.127l0.153-9.787l8.156,0.127L161.727,146.245z M161.981,129.934l-8.156-0.127l0.509-32.623l16.991,0.265  L161.981,129.934z" fill="#808080"/>
<g>
</g>
<g>
</g>
<g>
</g>
<g>
</g>
<g>
</g>
<g>
</g>
<g>
</g>
<g>
</g>
<g>
</g>
<g>
</g>
<g>
</g>
<g>
</g>
<g>
</g>
<g>
</g>
<g>
</g>
</svg>
